<svg width="53" height="18" viewBox="0 0 53 18" fill="none" xmlns="http://www.w3.org/2000/svg">
<path d="M0.386 14V2.264H4.418C5.282 2.264 6.062 2.384 6.758 2.624C7.466 2.852 8.03 3.242 8.45 3.794C8.87 4.346 9.08 5.096 9.08 6.044C9.08 6.956 8.87 7.706 8.45 8.294C8.03 8.882 7.472 9.32 6.776 9.608C6.08 9.884 5.318 10.022 4.49 10.022H3.032V14H0.386ZM3.032 7.916H4.328C5.768 7.916 6.488 7.292 6.488 6.044C6.488 5.432 6.296 5 5.912 4.748C5.528 4.496 4.976 4.37 4.256 4.37H3.032V7.916ZM10.8927 14V5.072H13.5387V14H10.8927ZM12.2067 3.758C11.7627 3.758 11.4027 3.632 11.1267 3.38C10.8507 3.128 10.7127 2.792 10.7127 2.372C10.7127 1.952 10.8507 1.616 11.1267 1.364C11.4027 1.112 11.7627 0.985999 12.2067 0.985999C12.6507 0.985999 13.0107 1.112 13.2867 1.364C13.5627 1.616 13.7007 1.952 13.7007 2.372C13.7007 2.792 13.5627 3.128 13.2867 3.38C13.0107 3.632 12.6507 3.758 12.2067 3.758ZM19.7553 14.216C18.9273 14.216 18.1773 14.036 17.5053 13.676C16.8453 13.304 16.3173 12.77 15.9213 12.074C15.5373 11.366 15.3453 10.52 15.3453 9.536C15.3453 8.54 15.5613 7.694 15.9933 6.998C16.4253 6.302 16.9953 5.774 17.7033 5.414C18.4113 5.042 19.1733 4.856 19.9893 4.856C20.5413 4.856 21.0273 4.946 21.4473 5.126C21.8793 5.306 22.2633 5.534 22.5993 5.81L21.3573 7.52C20.9373 7.172 20.5353 6.998 20.1513 6.998C19.5153 6.998 19.0053 7.226 18.6213 7.682C18.2493 8.138 18.0633 8.756 18.0633 9.536C18.0633 10.304 18.2493 10.922 18.6213 11.39C19.0053 11.846 19.4853 12.074 20.0613 12.074C20.3493 12.074 20.6313 12.014 20.9073 11.894C21.1833 11.762 21.4353 11.606 21.6633 11.426L22.7073 13.154C22.2633 13.538 21.7833 13.814 21.2673 13.982C20.7513 14.138 20.2473 14.216 19.7553 14.216ZM24.2696 14V1.382H26.8436V8.618H26.9156L29.7416 5.072H32.6216L29.4896 8.744L32.8556 14H29.9936L27.9776 10.526L26.8436 11.804V14H24.2696ZM36.4965 14.216C35.5245 14.216 34.8165 13.898 34.3725 13.262C33.9405 12.614 33.7245 11.732 33.7245 10.616V5.072H36.3705V10.274C36.3705 10.91 36.4605 11.354 36.6405 11.606C36.8205 11.846 37.1025 11.966 37.4865 11.966C37.8225 11.966 38.1045 11.888 38.3325 11.732C38.5605 11.576 38.8065 11.324 39.0705 10.976V5.072H41.7165V14H39.5565L39.3585 12.758H39.3045C38.9325 13.202 38.5245 13.556 38.0805 13.82C37.6365 14.084 37.1085 14.216 36.4965 14.216ZM44.045 17.312V5.072H46.205L46.385 5.954H46.457C46.805 5.642 47.195 5.384 47.627 5.18C48.071 4.964 48.527 4.856 48.995 4.856C50.075 4.856 50.927 5.27 51.551 6.098C52.175 6.914 52.487 8.012 52.487 9.392C52.487 10.412 52.307 11.282 51.947 12.002C51.587 12.722 51.119 13.274 50.543 13.658C49.979 14.03 49.373 14.216 48.725 14.216C48.341 14.216 47.969 14.138 47.609 13.982C47.249 13.814 46.913 13.58 46.601 13.28L46.691 14.702V17.312H44.045ZM48.113 12.056C48.569 12.056 48.959 11.846 49.283 11.426C49.607 11.006 49.769 10.34 49.769 9.428C49.769 7.82 49.253 7.016 48.221 7.016C47.705 7.016 47.195 7.286 46.691 7.826V11.48C46.931 11.696 47.171 11.846 47.411 11.93C47.651 12.014 47.885 12.056 48.113 12.056Z" fill="#757575"/>
</svg>
